<?xml version="1.0" encoding="UTF-8"?>
<svg id="Layer_2" data-name="Layer 2" xmlns="http://www.w3.org/2000/svg" viewBox="0 0 45.16 42.87">
  <defs>
    <style>
      .cls-1 {
        fill: #231f20;
      }
    </style>
  </defs>
  <g id="Layer_1-2" data-name="Layer 1">
    <g>
      <path class="cls-1" d="M37.02,18.67c-.07-.23-.28-.38-.52-.38h-10.85l-3.35-10.31c-.07-.23-.28-.38-.52-.38s-.45.15-.52.38l-3.35,10.31H7.07c-.24,0-.45.15-.52.38-.07.22,0,.47.2.61l8.77,6.37-3.35,10.31c-.07.22,0,.47.2.61s.45.14.64,0l8.77-6.37,8.77,6.37c.1.07.21.1.32.1s.23-.03.32-.1c.19-.14.27-.39.2-.61l-3.35-10.31,8.77-6.37c.19-.14.27-.39.2-.61Z"/>
      <g>
        <path class="cls-1" d="M4.68,17.58l.17-.07c.11-.05.22-.11.3-.16.08-.05.16-.11.23-.17.22-.2.33-.45.33-.74,0-.5-.31-.68-.58-.68-.35,0-.58.23-.58.58h0c-.17-.1-.34-.2-.49-.28-.22-.12-.44-.22-.65-.3-.01,0-.03,0-.04-.01-.03,0-.09-.02-.17-.02-.07,0-.16,0-.27,0-.05,0-.09,0-.14.03C.98,16.12.02,17.22,0,18.91c0,.86.33,1.58,1,2.13.59.49,1.33.74,2.2.74.69,0,1.28-.21,1.76-.62.02-.01.03-.03.04-.04.5-.44.75-1.01.75-1.7,0-.46-.16-.9-.48-1.3-.18-.23-.37-.41-.59-.54ZM4.69,19.42c0,.27-.08.48-.25.67-.09.09-.19.16-.31.22-.12.06-.25.1-.38.12-.29,0-.57-.04-.85-.11-.28-.07-.52-.16-.72-.26-.23-.13-.42-.3-.57-.5-.15-.2-.25-.44-.32-.7-.03-.11-.04-.23-.04-.35,0-.04,0-.08,0-.12.09.18.22.35.37.49.05.05.11.1.17.15.04.03.07.06.1.08.05.04.1.09.15.13.05.04.1.08.14.11.07.05.16.08.25.07.15-.01.31-.05.49-.11.17-.06.35-.14.55-.25.01,0,.02-.01.04-.02.09-.05.18-.09.25-.13.08-.04.14-.07.21-.11.04-.02.07-.04.09-.05.01,0,.02-.01.03-.02,0,0,0,0,.01,0,.12,0,.24.06.37.19.11.12.18.26.2.46v.05ZM2.38,17.96s-.03,0-.05-.01c-.11-.02-.11-.04-.12-.05,0-.01,0-.03-.01-.04-.02-.05-.02-.07-.02-.07,0-.03,0-.06.07-.11.04-.03.1-.07.22-.07h.04s.04,0,.04,0c.02,0,.05,0,.09.04.04.03.08.08.12.13l-.38.18Z"/>
        <path class="cls-1" d="M24.1,4.61c-.13-.18-.36-.24-.58-.13-.26.15-.53.22-.83.22-.05,0-.11,0-.17,0l.4-.56c.04-.06.07-.14.07-.21,0-.09-.02-.19-.07-.31-.11-.33-.23-.66-.37-1.01-.12-.32-.26-.65-.4-.97.07-.08.12-.14.16-.17l.72.26s.08.02.12.02h.11c.05,0,.11-.01.17-.03.07-.03.14-.09.19-.15h0s.53-.75.53-.75c.01-.01.02-.03.03-.05.04-.08.06-.18.05-.27-.02-.14-.1-.26-.21-.32l-.13-.08c-.21-.12-.45-.05-.57.14l-.03.04-.64-.24c-.16-.05-.33-.02-.45.1l-.19.19s-.08-.06-.12-.09c-.17-.11-.39-.19-.64-.24-.05,0-.09,0-.14,0-.34.01-.65.12-.92.33-.27.21-.48.5-.66.89-.09.25-.17.53-.23.84-.06.31-.09.63-.09.95,0,.7.19,1.34.58,1.91.09.14.21.27.34.39.12.12.26.22.4.32.14.09.28.18.43.26.15.08.3.14.47.2.08.02.17.04.26.06l.27.05c.09.01.17.02.26.02.08,0,.17,0,.25,0,.11,0,.21,0,.31-.02l.23-.03c.07-.01.14-.04.19-.09l.88-.8c.08-.07.14-.16.15-.26.02-.11-.01-.23-.09-.33l-.06-.08ZM20.69,2.05c.03-.2.07-.38.12-.53.16-.45.34-.45.42-.45h.02s.02,0,.04.03l-.45.52c-.05.05-.17.2-.09.47l.79,2s0,.02,0,.06c0,.05,0,.1-.02.16-.01.04-.02.09-.04.13-.16-.1-.3-.23-.45-.4-.22-.26-.34-.52-.37-.79-.01-.16-.02-.32-.02-.5,0-.26.02-.5.05-.7Z"/>
        <path class="cls-1" d="M45.07,20.44c-.12-.16-.28-.25-.46-.26-.03,0-.05,0-.08,0-.07.01-.14.03-.21.07,0-.03,0-.07,0-.12,0-.12-.01-.28-.02-.44,0-.07,0-.13,0-.18,0-.05,0-.09,0-.14,0-.06,0-.13,0-.2,0-.07,0-.12,0-.17,0-.12.02-.23.03-.32,0-.08.01-.13.01-.13,0-.04.02-.07.04-.09.01-.02.02-.03.04-.04.04-.02.09-.03.14-.05.05-.01.09-.02.15-.02.25,0,.43-.19.43-.44,0-.17-.04-.29-.1-.39-.01-.18-.03-.35-.07-.51-.05-.2-.11-.39-.2-.56-.13-.22-.29-.39-.49-.52-.21-.13-.45-.2-.71-.2h-.07s-.08,0-.12.01c-.24.03-.47.13-.67.29-.06.05-.12.1-.18.16-.03-.03-.06-.06-.08-.09-.24-.24-.56-.37-.92-.37-.15,0-.3.03-.44.09-.13.06-.24.13-.38.24-.02.02-.04.04-.06.06-.05-.04-.1-.07-.15-.1-.23-.14-.52-.2-.85-.2-.45,0-.84.18-1.17.53-.33.35-.5.75-.5,1.18s.1.83.29,1.15c.25.42.63.67,1.1.71.13.02.24-.01.33-.09.1-.08.15-.2.15-.33,0-.01,0-.03,0-.04v-.12c-.02-.19-.14-.34-.31-.38-.07-.02-.14-.06-.2-.11-.07-.05-.13-.11-.19-.18-.04-.07-.08-.15-.11-.23-.03-.08-.04-.16-.04-.24,0-.15.04-.25.12-.34.05-.05.14-.12.33-.12.34,0,.57.38.68,1.12,0,0,0,.02,0,.03.05.33.08.62.08.84,0,.41-.07.75-.23,1.02-.15-.07-.3-.13-.44-.18-.09-.03-.19-.02-.28.02-.07.04-.15.09-.23.18-.07.07-.15.15-.21.23-.07.08-.13.15-.19.22-.05.07-.09.13-.11.16-.11.16-.09.3-.07.38.04.12.13.22.26.27l.14.05c.15.04.31,0,.44-.12,0,0,.02.02.03.02.32.23.47.27.68.21h.04c.06-.03.11-.06.15-.1.04-.04.07-.07.1-.1,0,0,.02.01.03.01l.08.05c.14.1.36.11.53-.06h0s.02.01.03.02c.23.16.37.22.51.22.1,0,.21-.03.29-.09.02-.02.05-.03.07-.06.05-.06.1-.11.14-.14.06-.06.1-.1.11-.12.35-.41.61-.87.8-1.36.02-.04.03-.09.05-.14v.94s0,.09.03.14l.04.1s.03.06.04.09c.03.06.05.1.07.13.01.02.03.04.05.06.02.02.08.07.2.15l.37.26c.06.04.13.07.21.07h.12c.09,0,.17-.03.24-.09l.7-.6c.2-.15.24-.41.09-.61ZM41.54,18.53c0-.09-.02-.17-.03-.26-.03-.27-.07-.51-.12-.73-.04-.18-.08-.34-.13-.48,0-.02.01-.03.02-.04.04.03.11.11.2.3.11.23.19.49.23.75,0,0,0,0,0,.01.02.15.04.29.05.43.01.15.02.3.02.44,0,.3-.03.59-.1.86-.03.14-.08.27-.13.4-.01,0-.02-.01-.04-.02-.08-.04-.17-.06-.25-.09.09-.19.16-.39.21-.6.05-.23.08-.47.08-.71,0-.09,0-.18-.01-.28ZM43.03,17.28s.06-.09.1-.12c.03-.02.08-.05.16-.05.06,0,.11,0,.16.02.17.04.22.32.23.57-.23.15-.41.31-.53.47-.01-.29-.05-.59-.12-.89Z"/>
        <path class="cls-1" d="M36.31,37.93l-.08-.07c-.15-.15-.43-.15-.58-.02-.26-.13-.49-.25-.69-.35-.21-.1-.38-.2-.54-.28-.12-.06-.23-.11-.33-.14-.07-.02-.12-.04-.18-.05,0-.01-.01-.02-.02-.03-.07-.09-.17-.14-.28-.14-.21,0-.42.03-.62.08-.2.05-.39.13-.56.22-.21.12-.38.27-.52.44-.14.18-.24.38-.3.61,0,.03-.01.07-.02.11,0,.05,0,.1,0,.14,0,.4.18.78.53,1.13.09.09.21.14.32.13.11,0,.21-.05.29-.13l.08-.07s0,0,0,0c.03.2.1.35.19.46.08.1.2.22.36.36.08.07.16.14.26.22-.03,0-.09,0-.17-.01-.08,0-.18-.02-.3-.03-.09-.06-.18-.1-.27-.13-.11-.04-.23-.06-.33-.06-.17,0-.41.06-.63.36l-.41.56c-.08.1-.12.23-.09.36.03.13.11.23.21.28l.09.05c.09.06.21.08.33.06.11-.03.2-.09.25-.16,0,0,0,0,0-.01.63.39,1.23.72,1.8.98.13.06.27.09.42.09.11,0,.22-.02.33-.05.1-.03.21-.09.33-.17.01,0,.02-.02.03-.02.02-.02.05-.04.07-.06l.09-.06s.08-.06.11-.09l.07-.06s.03-.02.05-.03c.09-.06.17-.12.25-.19.08-.06.15-.12.21-.17.11-.08.17-.19.18-.32,0-.11-.03-.23-.11-.32l-.07-.09s-.02-.02-.03-.03c-.14-.13-.33-.16-.51-.08-.02.01-.04.02-.06.04-.23.18-.44.27-.6.27-.07,0-.16-.02-.24-.07-.03-.02-.06-.04-.1-.05.06-.04.12-.08.18-.12.31-.26.46-.54.46-.83,0-.09-.01-.19-.04-.29-.03-.1-.08-.2-.16-.31-.02-.03-.04-.05-.07-.08l-.71-.58s0-.01,0-.02c0,0,0-.03.06-.09.04-.05.09-.11.16-.17l.72.37c.05.03.11.04.17.04h.12c.09,0,.17-.03.23-.08l.69-.58c.09-.09.14-.22.12-.35,0-.11-.06-.21-.14-.29ZM32.88,38.98s-.02-.03-.03-.04c-.2-.28-.22-.42-.22-.47,0-.01,0-.02,0-.04,0,0,0-.01,0-.02,0,0,0-.01,0-.02.01-.08.05-.14.11-.19.07-.05.14-.08.24-.08,0,0,.04,0,.14.03.09.03.19.08.28.12,0,0,.02.01.03.02-.27.23-.46.46-.56.7ZM31.74,41.37h0s0,0,.01-.01c0,0,0,0,0,.01Z"/>
      </g>
    </g>
  </g>
</svg>