<?xml version="1.0" encoding="UTF-8"?>
<svg id="Layer_2" data-name="Layer 2" xmlns="http://www.w3.org/2000/svg" viewBox="0 0 253.46 240.6">
  <defs>
    <style>
      .cls-1 {
        fill: #a91f25;
      }
    </style>
  </defs>
  <g id="Layer_1-2" data-name="Layer 1">
    <g>
      <path class="cls-1" d="M207.78,104.8c-.41-1.26-1.59-2.12-2.92-2.12h-60.86l-18.81-57.88c-.41-1.26-1.59-2.12-2.92-2.12s-2.51.86-2.92,2.12l-18.81,57.88h-60.86c-1.33,0-2.51.86-2.92,2.12-.41,1.26.04,2.65,1.11,3.43l49.24,35.77-18.81,57.89c-.41,1.26.04,2.65,1.11,3.43s2.53.78,3.61,0l49.24-35.77,49.24,35.77c.54.39,1.17.59,1.8.59s1.27-.2,1.8-.59c1.07-.78,1.52-2.16,1.11-3.43l-18.81-57.89,49.24-35.77c1.07-.78,1.52-2.16,1.11-3.43Z"/>
      <g>
        <path class="cls-1" d="M26.27,98.65l.96-.4c.64-.29,1.21-.59,1.7-.92.47-.3.87-.6,1.3-.95,1.23-1.1,1.87-2.54,1.87-4.16,0-2.82-1.77-3.82-3.28-3.82-1.96,0-3.28,1.3-3.28,3.24h0c-.96-.58-1.89-1.12-2.77-1.59-1.24-.67-2.47-1.24-3.65-1.68-.08-.03-.16-.05-.24-.07-.17-.04-.49-.09-.97-.13-.37-.03-.88-.05-1.53-.05-.27,0-.53.05-.77.15C5.48,90.49.09,96.66,0,106.14c-.03,4.83,1.85,8.85,5.61,11.97,3.33,2.74,7.48,4.13,12.34,4.13,3.86,0,7.19-1.18,9.9-3.5.09-.07.16-.15.23-.24,2.78-2.45,4.19-5.65,4.19-9.52,0-2.57-.91-5.03-2.69-7.31-.99-1.28-2.1-2.29-3.31-3.03ZM26.33,108.99c0,1.49-.47,2.72-1.41,3.74-.48.5-1.07.92-1.73,1.24-.66.32-1.38.55-2.14.68-1.62-.04-3.22-.24-4.75-.6-1.56-.37-2.94-.87-4.06-1.48-1.3-.73-2.38-1.67-3.21-2.79-.83-1.13-1.43-2.45-1.78-3.95-.15-.63-.23-1.3-.23-1.99,0-.22,0-.44.02-.66.51,1.02,1.22,1.94,2.1,2.72.29.29.61.56.95.82.21.16.41.31.57.46.27.24.56.49.87.73.29.24.56.44.79.62.4.3.9.45,1.4.4.83-.07,1.75-.28,2.74-.62.93-.32,1.98-.79,3.11-1.38.07-.04.14-.08.2-.12.52-.26.99-.51,1.41-.73.43-.23.77-.41,1.19-.6.2-.11.37-.2.52-.27.06-.03.12-.06.19-.09.02,0,.05,0,.08,0,.68,0,1.37.36,2.06,1.05.64.68,1,1.48,1.13,2.57v.27ZM13.34,100.81c-.1-.03-.19-.05-.29-.06-.6-.09-.64-.23-.65-.3-.02-.08-.04-.16-.07-.24-.1-.27-.12-.4-.12-.4,0-.18.02-.34.38-.62.2-.17.54-.39,1.24-.39h.22s.22.03.25.03c.12.01.29.05.5.22.23.18.46.43.69.73l-2.14,1.03Z"/>
        <path class="cls-1" d="M135.27,25.87c-.72-1-2-1.32-3.24-.7-1.44.84-2.96,1.24-4.64,1.24-.29,0-.6-.01-.93-.03l2.22-3.12c.25-.35.38-.76.38-1.19,0-.5-.12-1.07-.37-1.76-.63-1.83-1.32-3.72-2.07-5.67-.7-1.79-1.45-3.63-2.25-5.47.39-.47.68-.77.87-.95l4.04,1.45c.22.08.46.12.69.12h.63c.3,0,.61-.06.97-.19.37-.15.78-.49,1.04-.85h0s2.96-4.22,2.96-4.22c.06-.08.11-.17.15-.26.23-.47.33-.98.26-1.53-.1-.8-.57-1.48-1.18-1.78l-.74-.44c-1.16-.66-2.53-.3-3.19.76l-.16.23-3.58-1.32c-.89-.3-1.83-.08-2.51.58l-1.09,1.09c-.21-.18-.42-.35-.66-.5-.96-.64-2.17-1.08-3.6-1.33-.26-.05-.53-.04-.78.02-1.92.07-3.65.68-5.14,1.83-1.5,1.15-2.72,2.79-3.69,4.97-.52,1.38-.95,2.96-1.28,4.72-.33,1.76-.5,3.56-.5,5.34,0,3.95,1.09,7.55,3.24,10.72.53.76,1.17,1.49,1.89,2.17.7.65,1.45,1.25,2.24,1.79.77.53,1.59,1.02,2.44,1.46.84.44,1.69.8,2.62,1.12.45.13.95.24,1.48.34l1.52.27c.5.06.97.11,1.43.14.47.03.93.05,1.4.05.62,0,1.2-.03,1.76-.1l1.32-.17c.41-.06.79-.24,1.09-.52l4.93-4.51c.47-.38.77-.9.85-1.47.1-.64-.08-1.31-.5-1.86l-.36-.47ZM116.13,11.51c.16-1.12.39-2.14.65-2.96.88-2.52,1.93-2.52,2.38-2.52h.09c.06,0,.1,0,.25.16l-2.54,2.9c-.29.29-.94,1.12-.5,2.62l4.44,11.24s.02.1.02.35c0,.29-.04.57-.12.89-.06.24-.14.5-.24.75-.88-.53-1.71-1.28-2.51-2.25-1.25-1.46-1.92-2.9-2.05-4.43-.08-.87-.12-1.81-.12-2.82,0-1.47.09-2.79.25-3.93Z"/>
        <path class="cls-1" d="M252.95,114.71c-.65-.88-1.57-1.4-2.59-1.46-.14,0-.29,0-.44.02-.39.06-.77.19-1.2.41,0-.19-.01-.41-.02-.65-.03-.7-.07-1.55-.12-2.46,0-.38,0-.73-.02-1.04,0-.26-.02-.53-.02-.79,0-.35,0-.72.02-1.1.01-.37.03-.68.06-.97.05-.69.1-1.29.16-1.8.04-.45.08-.74.07-.74.05-.2.12-.37.22-.51.07-.09.13-.17.2-.24.24-.09.51-.18.78-.27.26-.08.53-.12.81-.12,1.39,0,2.44-1.05,2.44-2.44,0-.94-.24-1.64-.54-2.17-.06-1.01-.18-1.96-.38-2.84-.25-1.13-.62-2.16-1.14-3.12-.72-1.23-1.64-2.22-2.75-2.92-1.16-.74-2.5-1.11-3.97-1.11h-.4c-.24,0-.47.02-.69.06-1.35.16-2.62.71-3.77,1.63-.35.28-.69.58-1.01.92-.16-.18-.31-.35-.47-.51-1.37-1.37-3.12-2.07-5.18-2.07-.84,0-1.67.18-2.47.53-.71.31-1.37.72-2.11,1.34-.11.11-.21.22-.32.33-.27-.21-.54-.41-.83-.58-1.31-.76-2.93-1.15-4.8-1.15-2.52,0-4.73,1.01-6.57,2.98-1.85,1.95-2.78,4.18-2.78,6.65s.55,4.67,1.62,6.47c1.38,2.38,3.51,3.75,6.18,3.98.71.1,1.36-.08,1.87-.51.54-.45.84-1.12.84-1.88,0-.07,0-.14,0-.21l-.07-.69c-.06-1.04-.73-1.89-1.67-2.15-.42-.14-.79-.34-1.14-.61-.37-.29-.73-.63-1.06-1.03-.25-.41-.45-.84-.6-1.27-.14-.43-.21-.87-.21-1.34,0-.82.22-1.42.69-1.91.29-.3.79-.69,1.83-.69,1.91,0,3.2,2.11,3.81,6.28,0,.05.02.11.03.16.28,1.87.42,3.47.42,4.74,0,2.3-.42,4.19-1.27,5.74-.85-.4-1.67-.74-2.47-1.01-.52-.17-1.08-.13-1.57.11-.41.2-.82.52-1.31.99-.39.37-.82.85-1.17,1.31-.41.44-.76.86-1.05,1.26-.29.4-.51.72-.6.87-.62.89-.51,1.7-.38,2.11.21.69.71,1.23,1.47,1.53l.79.29c.87.24,1.75.05,2.48-.65.05.04.11.08.18.14,1.77,1.28,2.64,1.53,3.79,1.15l.22-.07c.31-.1.59-.28.82-.51.2-.21.39-.4.56-.57.05.03.1.06.15.08l.45.26c.8.54,2,.6,2.96-.35h0c.05.04.11.08.17.12,1.29.89,2.09,1.23,2.87,1.23.58,0,1.15-.17,1.65-.5.13-.09.26-.19.37-.31.3-.33.56-.6.77-.81.32-.31.54-.56.64-.69,1.94-2.31,3.44-4.87,4.46-7.61.09-.25.18-.51.27-.76v5.27c0,.26.05.52.15.76l.22.53c.09.18.17.35.23.49.14.34.28.58.38.73.08.12.17.23.27.33.11.1.47.4,1.11.85l2.05,1.43c.34.24.75.37,1.17.37h.68c.49,0,.96-.17,1.33-.49l3.95-3.37c1.11-.83,1.32-2.3.5-3.41ZM233.15,103.97c-.04-.48-.09-.97-.14-1.46-.17-1.49-.38-2.88-.65-4.11-.21-1-.46-1.89-.76-2.68.04-.09.07-.16.1-.21.2.17.6.61,1.11,1.66.61,1.31,1.05,2.73,1.31,4.22,0,.03,0,.05.01.08.11.82.2,1.62.26,2.42.06.85.09,1.67.09,2.47,0,1.7-.19,3.33-.55,4.85-.19.79-.43,1.54-.71,2.25-.07-.03-.14-.06-.21-.09-.47-.2-.94-.36-1.41-.5.53-1.08.92-2.2,1.18-3.34.28-1.27.43-2.61.43-4,0-.51-.02-1.03-.07-1.55ZM241.48,96.95c.17-.28.36-.5.57-.66.17-.13.42-.28.92-.28.32,0,.62.03.92.1.97.23,1.24,1.81,1.28,3.21-1.3.86-2.29,1.73-3,2.64-.08-1.64-.31-3.32-.69-5.01Z"/>
        <path class="cls-1" d="M203.8,212.85l-.44-.4c-.83-.82-2.4-.84-3.24-.13-1.44-.74-2.72-1.4-3.85-1.98-1.15-.58-2.14-1.1-3.03-1.59-.68-.34-1.3-.6-1.85-.79-.37-.12-.7-.23-.99-.3-.04-.06-.08-.12-.13-.18-.39-.48-.97-.76-1.59-.76-1.19,0-2.36.14-3.47.43-1.11.29-2.17.71-3.14,1.26-1.17.67-2.16,1.5-2.94,2.49-.8,1.01-1.35,2.12-1.66,3.4-.03.17-.07.38-.1.63-.04.3-.06.57-.06.81,0,2.26.99,4.39,2.95,6.35.5.5,1.16.77,1.8.74.6-.02,1.17-.28,1.61-.73l.45-.41s.01-.01.02-.02c.14,1.11.59,1.96,1.05,2.59.45.55,1.12,1.21,2.04,2.01.43.37.92.78,1.47,1.22-.19,0-.5-.03-.93-.07-.46-.04-1.02-.1-1.69-.18-.53-.31-1.02-.54-1.49-.71-.64-.22-1.26-.33-1.84-.33-.93,0-2.29.34-3.56,2.01l-2.29,3.13c-.46.56-.65,1.3-.48,2.04.16.71.62,1.3,1.2,1.59l.53.3c.53.36,1.19.47,1.84.31.59-.14,1.1-.49,1.39-.91.02-.02.03-.04.05-.06,3.52,2.17,6.9,4.02,10.11,5.51.75.33,1.53.5,2.33.5.59,0,1.21-.1,1.82-.31.58-.2,1.18-.5,1.82-.93.06-.04.12-.09.18-.14.13-.11.25-.21.41-.32l.49-.36c.23-.16.44-.33.63-.49l.4-.34c.09-.06.18-.12.27-.19.49-.35.96-.7,1.41-1.06.44-.35.85-.7,1.15-.96.59-.45.94-1.08.99-1.78.04-.64-.18-1.27-.64-1.78l-.4-.5c-.05-.06-.11-.13-.17-.19-.76-.76-1.86-.92-2.87-.43-.12.06-.23.13-.34.21-1.31,1-2.47,1.53-3.34,1.53-.42,0-.88-.14-1.37-.4-.18-.1-.36-.2-.54-.3.35-.2.68-.43,1-.69,1.72-1.46,2.59-3.02,2.59-4.64,0-.51-.08-1.06-.25-1.61-.17-.57-.46-1.15-.88-1.77-.11-.16-.24-.31-.4-.43l-3.99-3.26s-.02-.08-.02-.13c0,0,.05-.17.33-.52.24-.3.53-.61.89-.97l4.05,2.07c.29.15.61.22.93.22h.69c.48,0,.94-.17,1.31-.48l3.87-3.25c.52-.52.76-1.25.68-1.94-.06-.63-.32-1.19-.79-1.64ZM184.52,218.74c-.04-.08-.09-.15-.14-.23-1.12-1.57-1.24-2.36-1.24-2.62,0-.07,0-.14,0-.21,0-.01,0-.08.02-.14,0-.04.02-.08.02-.12.08-.46.28-.8.64-1.09.37-.31.79-.45,1.32-.45,0,0,.23,0,.77.19.51.18,1.07.42,1.57.67.06.03.11.06.17.09-1.53,1.3-2.57,2.59-3.13,3.91ZM178.11,232.19h0s.04-.05.06-.07c-.02.02-.04.05-.06.07Z"/>
      </g>
    </g>
  </g>
</svg>